<svg xmlns="http://www.w3.org/2000/svg" viewBox="0 0 840 340" width="100%" role="img" font-family="-apple-system,BlinkMacSystemFont,'PingFang SC','Microsoft YaHei',sans-serif"><title>各设备成本对比</title><rect width="840" height="340" fill="#FAF9F6" rx="10"/><text x="28" y="30" font-size="15" font-weight="500" fill="#2C2C2A">各设备成本对比</text><text x="154" y="75.3" text-anchor="end" font-size="12" fill="#2C2C2A">电动汽车慢充</text><rect x="168" y="59.0" width="402.5" height="24.7" rx="3" fill="#B5D4F4" opacity="0.85"/><rect x="168" y="84.7" width="153.0" height="24.7" rx="3" fill="#2F6DB5"/><text x="578.5" y="75.3" font-size="11.5" fill="#7A7873">¥16.49 → ¥6.27（省 ¥10.22）</text><text x="154" y="114.0" text-anchor="end" font-size="12" fill="#2C2C2A">洗衣机</text><rect x="168" y="97.6" width="10.8" height="24.7" rx="3" fill="#B5D4F4" opacity="0.85"/><rect x="168" y="123.4" width="6.3" height="24.7" rx="3" fill="#2F6DB5"/><text x="186.8" y="114.0" font-size="11.5" fill="#7A7873">¥0.44 → ¥0.26（省 ¥0.18）</text><text x="154" y="152.7" text-anchor="end" font-size="12" fill="#2C2C2A">储水式电热水器</text><rect x="168" y="136.3" width="77.6" height="24.7" rx="3" fill="#B5D4F4" opacity="0.85"/><rect x="168" y="162.0" width="21.9" height="24.7" rx="3" fill="#2F6DB5"/><text x="253.6" y="152.7" font-size="11.5" fill="#7A7873">¥3.18 → ¥0.90（省 ¥2.28）</text><text x="154" y="191.3" text-anchor="end" font-size="12" fill="#2C2C2A">洗碗机</text><rect x="168" y="175.0" width="17.3" height="24.7" rx="3" fill="#B5D4F4" opacity="0.85"/><rect x="168" y="200.7" width="17.3" height="24.7" rx="3" fill="#2F6DB5"/><text x="193.3" y="191.3" font-size="11.5" fill="#7A7873">¥0.71</text><text x="154" y="230.0" text-anchor="end" font-size="12" fill="#2C2C2A">照明（固定）</text><rect x="168" y="213.6" width="14.4" height="24.7" rx="3" fill="#B5D4F4" opacity="0.85"/><rect x="168" y="239.4" width="14.4" height="24.7" rx="3" fill="#2F6DB5"/><text x="190.4" y="230.0" font-size="11.5" fill="#7A7873">¥0.59</text><text x="154" y="268.7" text-anchor="end" font-size="12 font-weight="500"" fill="#2C2C2A">合计</text><rect x="168" y="252.3" width="522.6" height="24.7" rx="3" fill="#93BDE8" opacity="0.85"/><rect x="168" y="278.0" width="212.9" height="24.7" rx="3" fill="#5B4FCF"/><text x="698.6" y="268.7" font-size="11.5" fill="#7A7873">¥21.41 → ¥8.72（省 ¥12.69）</text><rect x="28" y="310.0" width="11" height="11" rx="2" fill="#B5D4F4"/><text x="45" y="319.0" font-size="11.5" fill="#7A7873">优化前</text><rect x="98" y="310.0" width="11" height="11" rx="2" fill="#2F6DB5"/><text x="115" y="319.0" font-size="11.5" fill="#7A7873">优化后</text><text x="812.0" y="320.0" text-anchor="end" font-size="13" font-weight="500" fill="#5B4FCF">整体节省 59.3%</text></svg>