<svg xmlns="http://www.w3.org/2000/svg" viewBox="0 0 840 320" width="100%" role="img" font-family="-apple-system,BlinkMacSystemFont,'PingFang SC','Microsoft YaHei',sans-serif"><title>优化前后用电负荷分布</title><rect width="840" height="320" fill="#FAF9F6" rx="10"/><text x="62" y="28" font-size="15" font-weight="500" fill="#2C2C2A">优化前后用电负荷分布</text><line x1="62" y1="268.0" x2="818" y2="268.0" stroke="#E8E6DF" stroke-width="0.8"/><text x="54" y="272.0" text-anchor="end" font-size="11" fill="#7A7873">0.0</text><line x1="62" y1="213.0" x2="818" y2="213.0" stroke="#E8E6DF" stroke-width="0.8"/><text x="54" y="217.0" text-anchor="end" font-size="11" fill="#7A7873">2.7</text><line x1="62" y1="158.0" x2="818" y2="158.0" stroke="#E8E6DF" stroke-width="0.8"/><text x="54" y="162.0" text-anchor="end" font-size="11" fill="#7A7873">5.4</text><line x1="62" y1="103.0" x2="818" y2="103.0" stroke="#E8E6DF" stroke-width="0.8"/><text x="54" y="107.0" text-anchor="end" font-size="11" fill="#7A7873">8.1</text><line x1="62" y1="48.0" x2="818" y2="48.0" stroke="#E8E6DF" stroke-width="0.8"/><text x="54" y="52.0" text-anchor="end" font-size="11" fill="#7A7873">10.8</text><rect x="84.0" y="84.6" width="12.0" height="183.4" rx="1.5" fill="#2F6DB5"/><rect x="115.5" y="84.6" width="12.0" height="183.4" rx="1.5" fill="#2F6DB5"/><rect x="147.0" y="125.4" width="12.0" height="142.6" rx="1.5" fill="#2F6DB5"/><rect x="178.5" y="125.4" width="12.0" height="142.6" rx="1.5" fill="#2F6DB5"/><rect x="304.5" y="257.8" width="12.0" height="10.2" rx="1.5" fill="#2F6DB5"/><rect x="336.0" y="262.9" width="12.0" height="5.1" rx="1.5" fill="#2F6DB5"/><rect x="638.5" y="224.2" width="12.0" height="43.8" rx="1.5" fill="#B5D4F4"/><rect x="651.0" y="264.9" width="12.0" height="3.1" rx="1.5" fill="#2F6DB5"/><rect x="670.0" y="81.6" width="12.0" height="186.4" rx="1.5" fill="#B5D4F4"/><rect x="682.5" y="248.6" width="12.0" height="19.4" rx="1.5" fill="#2F6DB5"/><rect x="701.5" y="95.8" width="12.0" height="172.2" rx="1.5" fill="#B5D4F4"/><rect x="714.0" y="256.8" width="12.0" height="11.2" rx="1.5" fill="#2F6DB5"/><rect x="733.0" y="109.1" width="12.0" height="158.9" rx="1.5" fill="#B5D4F4"/><rect x="745.5" y="264.9" width="12.0" height="3.1" rx="1.5" fill="#2F6DB5"/><rect x="764.5" y="122.3" width="12.0" height="145.7" rx="1.5" fill="#B5D4F4"/><rect x="777.0" y="264.9" width="12.0" height="3.1" rx="1.5" fill="#2F6DB5"/><rect x="796.0" y="264.9" width="12.0" height="3.1" rx="1.5" fill="#B5D4F4"/><rect x="808.5" y="264.9" width="12.0" height="3.1" rx="1.5" fill="#2F6DB5"/><line x1="62" y1="268.0" x2="818" y2="268.0" stroke="#B4B2A9" stroke-width="1"/><text x="62.0" y="286.0" text-anchor="middle" font-size="11" fill="#7A7873">00</text><text x="125.0" y="286.0" text-anchor="middle" font-size="11" fill="#7A7873">02</text><text x="188.0" y="286.0" text-anchor="middle" font-size="11" fill="#7A7873">04</text><text x="251.0" y="286.0" text-anchor="middle" font-size="11" fill="#7A7873">06</text><text x="314.0" y="286.0" text-anchor="middle" font-size="11" fill="#7A7873">08</text><text x="377.0" y="286.0" text-anchor="middle" font-size="11" fill="#7A7873">10</text><text x="440.0" y="286.0" text-anchor="middle" font-size="11" fill="#7A7873">12</text><text x="503.0" y="286.0" text-anchor="middle" font-size="11" fill="#7A7873">14</text><text x="566.0" y="286.0" text-anchor="middle" font-size="11" fill="#7A7873">16</text><text x="629.0" y="286.0" text-anchor="middle" font-size="11" fill="#7A7873">18</text><text x="692.0" y="286.0" text-anchor="middle" font-size="11" fill="#7A7873">20</text><text x="755.0" y="286.0" text-anchor="middle" font-size="11" fill="#7A7873">22</text><text x="818.0" y="286.0" text-anchor="middle" font-size="11" fill="#7A7873">24</text><text x="440.0" y="306.0" text-anchor="middle" font-size="11" fill="#7A7873">小时</text><text x="14" y="158.0" text-anchor="middle" font-size="11" fill="#7A7873" transform="rotate(-90 14 158.0)">等效功率 (kW)</text><rect x="62.0" y="290.0" width="11" height="11" rx="2" fill="#B5D4F4"/><text x="78.0" y="299.0" font-size="11.5" fill="#7A7873">优化前</text><rect x="140.0" y="290.0" width="11" height="11" rx="2" fill="#2F6DB5"/><text x="156.0" y="299.0" font-size="11.5" fill="#7A7873">优化后</text></svg>